<svg xmlns="http://www.w3.org/2000/svg" viewBox="0 0 200 200">
  <defs>
    <path id="innerText" d="M100,100 m66,0 a66,66 0 1,0 -132,0 a66,66 0 1,0 132,0"/>
    <radialGradient id="ringGlow" cx="50%" cy="50%" r="50%">
      <stop offset="0%" stop-color="rgba(135,150,198,0.8)" />
      <stop offset="100%" stop-color="rgba(135,150,198,0)" />
    </radialGradient>
  </defs>

  <!-- 外円 -->
  <circle cx="100" cy="100" r="90" stroke="rgba(135,150,198,0.7)" stroke-width="1.5" fill="none"/>

  <!-- 内円 -->
  <circle cx="100" cy="100" r="70" stroke="rgba(135,150,198,0.35)" stroke-width="1" fill="none"/>
  <circle cx="100" cy="100" r="70" fill="none" stroke="url(#ringGlow)" stroke-width="3" opacity="0.35"/>

  <!-- マーカー -->
  <g fill="rgba(135,150,198,0.65)">
    <g id="triangle"><path d="M100 10 L104 18 L96 18 Z"/></g>
    <circle id="circleMark" cx="100" cy="15" r="2" />
    <use href="#triangle" transform="rotate(0 100 100)"/>
    <use href="#circleMark" transform="rotate(22.5 100 100)"/>
    <use href="#triangle" transform="rotate(45 100 100)"/>
    <use href="#circleMark" transform="rotate(67.5 100 100)"/>
    <use href="#triangle" transform="rotate(90 100 100)"/>
    <use href="#circleMark" transform="rotate(112.5 100 100)"/>
    <use href="#triangle" transform="rotate(135 100 100)"/>
    <use href="#circleMark" transform="rotate(157.5 100 100)"/>
    <use href="#triangle" transform="rotate(180 100 100)"/>
    <use href="#circleMark" transform="rotate(202.5 100 100)"/>
    <use href="#triangle" transform="rotate(225 100 100)"/>
    <use href="#circleMark" transform="rotate(247.5 100 100)"/>
    <use href="#triangle" transform="rotate(270 100 100)"/>
    <use href="#circleMark" transform="rotate(292.5 100 100)"/>
    <use href="#triangle" transform="rotate(315 100 100)"/>
    <use href="#circleMark" transform="rotate(337.5 100 100)"/>
  </g>

  <!-- テキスト（Cinzel Decorative） -->
  <text font-size="8" fill="rgba(135,150,198,0.85)" font-family="'Cinzel Decorative', serif" letter-spacing="1.3">
    <textPath href="#innerText" startOffset="0%">
      | washijayomamamamahoja | washijayomamamamahoja | washijayomamamamahoja | washijayomamamamahoja | washijayomamamamahoja |
    </textPath>
  </text>

  <!-- 中央ロゴ -->
  <text x="50%" y="106" text-anchor="middle" fill="rgba(135,150,198,0.55)" font-size="10" font-family="'Cinzel Decorative', serif">MAHO</text>
</svg>
